<svg version="1.1" id="Layer_1" xmlns="http://www.w3.org/2000/svg" xmlns:xlink="http://www.w3.org/1999/xlink" x="0px" y="0px"
	 width="100%" viewBox="0 0 500 500" enable-background="new 0 0 500 500" xml:space="preserve">
<path fill="#FEA8A7" opacity="1.000000" stroke="none" 
	d="
M352.292572,500.758179 
	C284.979095,501.000000 217.958206,501.000000 150.468658,501.000000 
	C147.840744,499.135590 145.180527,500.173157 142.773773,499.827148 
	C115.574738,495.916626 91.419510,484.753540 69.649933,468.442078 
	C36.026836,443.249023 14.130831,410.078613 3.720090,369.326538 
	C2.308878,363.802429 2.615057,358.111420 1.241809,352.292572 
	C1.000000,284.979095 1.000000,217.958206 1.000000,150.468658 
	C2.864389,147.840744 1.826839,145.180527 2.172871,142.773788 
	C6.083422,115.574776 17.246450,91.419563 33.557926,69.649956 
	C58.750965,36.026825 91.921356,14.130916 132.673386,3.720114 
	C138.197495,2.308887 143.888535,2.615044 149.707413,1.241812 
	C217.020889,1.000000 284.041779,1.000000 351.531342,1.000000 
	C354.159271,2.864385 356.819458,1.826834 359.226227,2.172868 
	C386.425232,6.083429 410.580475,17.246458 432.350067,33.557930 
	C465.973175,58.750992 487.869080,91.921410 498.279877,132.673431 
	C499.691101,138.197525 499.385010,143.888550 500.758179,149.707428 
	C501.000000,217.020889 501.000000,284.041779 501.000000,351.531342 
	C499.135620,354.159271 500.173126,356.819458 499.827118,359.226227 
	C495.916565,386.425232 484.753571,410.580475 468.442108,432.350098 
	C443.249054,465.973206 410.078644,487.869080 369.326630,498.279877 
	C363.802521,499.691132 358.111450,499.384949 352.292572,500.758179 
z"/>
<path fill="#000000" opacity="1.000000" stroke="none" 
	d="
M149.531342,1.000000 
	C150.567215,3.282608 148.913055,2.872857 147.624969,3.006093 
	C133.831467,4.432866 120.874756,8.897811 108.106071,13.997633 
	C92.970345,20.042858 78.899063,28.092064 66.349228,38.407684 
	C54.532860,48.120422 43.960686,59.112701 34.706715,71.469574 
	C22.408913,87.890877 13.874745,105.997971 7.902248,125.457031 
	C5.623153,132.882599 3.351470,140.329514 3.020127,148.174179 
	C2.972130,149.310532 2.477677,150.033661 1.334925,150.336395 
	C1.000000,101.571281 1.037782,53.142475 0.914187,4.714074 
	C0.906030,1.517902 1.730207,0.919135 4.775285,0.925820 
	C52.870907,1.031409 100.966827,1.000000 149.531342,1.000000 
z"/>
<path fill="#000000" opacity="1.000000" stroke="none" 
	d="
M501.000000,149.531342 
	C498.709961,150.573456 499.127411,148.910675 498.994385,147.624924 
	C497.567108,133.831467 493.102295,120.874832 488.002441,108.106201 
	C481.957184,92.970482 473.907745,78.899414 463.592468,66.349243 
	C453.880035,54.532505 442.887024,43.961060 430.530487,34.706909 
	C414.109406,22.408724 396.002136,13.874897 376.542999,7.902311 
	C369.117310,5.623145 361.670197,3.352649 353.825684,3.020149 
	C352.689392,2.971985 351.966278,2.477588 351.663574,1.334906 
	C400.428711,1.000000 448.857513,1.037780 497.285919,0.914187 
	C500.482086,0.906031 501.080841,1.730192 501.074158,4.775285 
	C500.968567,52.870907 501.000000,100.966827 501.000000,149.531342 
z"/>
<path fill="#000000" opacity="1.000000" stroke="none" 
	d="
M352.468658,501.000000 
	C351.424316,498.709686 353.087280,499.126373 354.373322,498.993408 
	C368.167236,497.567657 381.123901,493.102478 393.892731,488.002655 
	C409.028564,481.957397 423.099823,473.908264 435.650085,463.592896 
	C447.466919,453.880402 458.038544,442.887482 467.292816,430.530853 
	C479.591125,414.109772 488.124878,396.002319 494.097687,376.543152 
	C496.376923,369.117401 498.647308,361.670135 498.979553,353.825531 
	C499.027649,352.689117 499.522491,351.966248 500.665100,351.663574 
	C501.000000,400.428711 500.962189,448.857513 501.085785,497.285919 
	C501.093933,500.482025 500.269897,501.080841 497.224762,501.074158 
	C449.129120,500.968567 401.033173,501.000000 352.468658,501.000000 
z"/>
<path fill="#000000" opacity="1.000000" stroke="none" 
	d="
M1.000000,352.468658 
	C3.290028,351.426514 2.872580,353.089264 3.005639,354.375031 
	C4.433129,368.168518 8.897852,381.125275 13.997656,393.894012 
	C20.042881,409.029846 28.092184,423.101135 38.407845,435.651001 
	C48.120602,447.467407 59.112999,458.039520 71.469902,467.293518 
	C87.891296,479.591339 105.998405,488.125732 125.457581,494.097992 
	C132.883133,496.376984 140.330017,498.649384 148.174927,498.979462 
	C149.311478,499.027252 150.034149,499.522400 150.336517,500.665131 
	C101.571297,501.000000 53.142490,500.962189 4.714099,501.085785 
	C1.518003,501.093933 0.919130,500.269897 0.925816,497.224762 
	C1.031412,449.129120 1.000000,401.033173 1.000000,352.468658 
z"/>
<path fill="#FCF7F7" opacity="1.000000" stroke="none" 
	d="
M338.110535,267.729523 
	C331.385071,274.379211 325.723602,281.647400 318.306305,287.163452 
	C316.360474,288.610504 314.316223,289.595581 311.977417,289.885864 
	C307.429047,290.450439 305.031342,288.396973 304.921326,283.827057 
	C304.833191,280.166840 304.809479,276.518127 306.348572,273.022552 
	C307.369812,270.703064 306.468567,269.864899 304.046814,270.755463 
	C302.019562,271.500946 300.024017,272.484009 297.924866,272.855408 
	C290.389648,274.188568 285.683899,270.075592 281.949493,264.210815 
	C278.936432,259.478943 278.107391,259.468903 274.223907,263.689941 
	C266.547150,272.033875 261.489380,281.966431 257.025970,292.226074 
	C253.694702,299.883423 249.459915,307.055542 245.552734,314.403839 
	C244.941055,315.554260 243.911636,316.492615 243.025925,317.484924 
	C241.654282,319.021698 239.902679,319.398315 238.016342,318.756836 
	C236.076279,318.097046 235.200073,316.565979 235.020813,314.559662 
	C234.541290,309.192902 235.279984,303.950348 236.316940,298.692047 
	C238.710022,286.556854 242.407440,274.829620 246.890259,263.324921 
	C247.335800,262.181458 248.600281,260.864227 247.298462,259.687958 
	C246.322205,258.805847 245.030975,259.670868 244.011215,260.063965 
	C235.749329,263.248962 227.305466,265.741974 218.530960,267.036255 
	C215.471313,267.487610 215.111938,269.109924 215.560410,272.008667 
	C216.801987,280.033844 215.630600,287.494598 209.857605,293.898102 
	C204.694809,299.624756 197.532471,301.939026 191.053711,299.315704 
	C185.511230,297.071503 181.537384,289.337311 182.282120,282.142181 
	C182.451157,280.509003 183.204834,278.925781 182.544540,276.830048 
	C180.084198,277.675781 178.704666,279.754852 177.056305,281.391815 
	C159.992020,298.338409 140.507904,311.391022 117.162903,317.938538 
	C105.583282,321.186218 94.206337,320.994568 83.477242,314.295380 
	C72.982262,307.742371 68.464149,297.501495 66.167168,286.225098 
	C63.083794,271.088074 65.059753,256.033386 69.083839,241.276596 
	C75.560898,217.524506 84.091644,194.651260 99.946831,175.317001 
	C112.388962,160.144730 127.188034,147.938889 145.914566,141.181137 
	C151.276093,139.246368 156.899918,138.405716 162.612549,139.124924 
	C171.149841,140.199783 176.420486,147.104431 177.089752,157.384064 
	C177.970215,170.907822 172.337967,182.375610 165.828415,193.518539 
	C161.036072,201.721985 155.222092,209.252594 149.385300,216.742172 
	C148.775238,217.525024 148.109329,218.303864 147.332306,218.908447 
	C145.918610,220.008423 144.187561,220.544418 142.796722,219.181503 
	C141.462631,217.874207 142.395645,216.374725 143.332870,215.157104 
	C149.022781,207.765030 154.760330,200.377747 159.262772,192.196625 
	C164.718140,182.283966 170.310486,172.327576 170.018661,160.439240 
	C169.730743,148.710922 164.198196,144.428177 152.916565,147.377609 
	C134.616623,152.161880 120.456711,163.365021 108.453850,177.337234 
	C87.493027,201.737152 77.369530,230.802063 72.912170,262.231201 
	C71.052765,275.341980 72.135094,287.657410 79.305763,299.232544 
	C84.449524,307.535767 92.012558,310.967926 101.182281,312.071442 
	C111.459213,313.308167 120.493706,309.255493 129.490265,305.317749 
	C153.103760,294.982239 171.394730,277.965759 187.825378,258.598602 
	C192.213821,253.425827 196.361786,247.881699 202.677902,244.727020 
	C205.093567,243.520508 207.851013,241.885925 209.606735,245.215622 
	C211.348572,248.518967 208.876846,249.890549 206.096985,250.918533 
	C200.956009,252.819702 198.751358,257.479401 196.345993,261.845184 
	C192.529419,268.772308 189.724579,276.060242 190.056931,284.130219 
	C190.203156,287.681122 190.886368,291.387909 195.229965,292.244659 
	C199.596237,293.105835 202.935501,291.397888 205.274414,287.512817 
	C209.247635,280.913116 209.598419,274.613159 205.203354,267.876831 
	C201.188095,261.722656 202.896790,258.644653 210.228500,259.255890 
	C222.356659,260.266937 232.940048,255.252960 244.137299,252.245697 
	C251.206375,250.347153 254.727768,246.297897 256.903839,240.069000 
	C257.747223,237.654922 259.090576,235.558502 261.937592,236.510315 
	C265.009308,237.537247 264.145905,240.339935 263.529999,242.489059 
	C261.183319,250.677734 256.937347,258.115967 253.919113,266.424377 
	C252.917480,274.730408 249.473068,282.022034 247.779114,289.771973 
	C250.006424,285.542755 252.016617,281.212555 253.976776,276.857880 
	C254.682037,275.291077 255.796753,274.101135 257.667145,273.187439 
	C258.241699,272.490448 258.552216,272.022064 258.906433,271.268921 
	C258.987152,269.835449 259.709503,269.111877 260.732849,268.216553 
	C260.941101,267.987274 261.087036,267.650146 261.118500,267.469177 
	C261.436310,266.536438 262.036469,266.017303 262.713623,265.190979 
	C263.147430,264.713501 263.401306,264.466888 263.787354,263.988495 
	C264.551819,263.526306 264.474365,262.894562 264.859497,262.217041 
	C265.043701,262.013824 264.998474,262.000458 265.013702,262.018463 
	C265.460693,261.560638 265.481720,260.886810 266.118103,260.249207 
	C267.465454,259.211334 268.526154,258.295624 269.762878,257.130524 
	C271.933960,253.635422 274.136139,250.563553 278.296295,250.059341 
	C283.469116,249.432404 286.240814,251.717010 288.687164,258.752258 
	C290.883820,264.745667 294.919037,266.685089 300.007477,264.040497 
	C307.893890,259.941772 314.918976,254.597275 320.555237,247.665070 
	C322.815216,244.885452 325.523926,242.778275 328.459930,240.886932 
	C333.264526,237.791870 338.240692,237.389786 342.860352,241.010803 
	C346.059509,243.518402 348.114410,242.683960 350.219330,239.767578 
	C353.627075,235.046219 357.137451,230.398453 360.635895,225.743210 
	C361.732361,224.284180 362.854401,222.829880 364.104187,221.504959 
	C365.180756,220.363632 366.586060,219.697067 368.166809,220.433685 
	C369.985840,221.281311 370.181091,222.978302 369.968781,224.700821 
	C369.659668,227.209198 368.660278,229.496872 367.546936,231.751175 
	C362.455383,242.061005 357.722839,252.512497 354.595459,263.630005 
	C353.458008,267.673553 352.852142,271.742950 352.758606,275.932373 
	C352.686157,279.176422 353.637756,280.241150 356.864868,278.665894 
	C361.377716,276.462982 365.753693,274.037506 369.606628,270.838898 
	C374.853333,266.483154 379.816040,261.784668 385.073578,257.442657 
	C389.236572,254.004578 391.657837,249.612518 393.287323,244.606430 
	C400.608490,222.114090 408.718384,199.945129 419.611816,178.870819 
	C424.458130,169.495178 430.479980,160.957031 437.079254,152.793137 
	C438.980743,150.440842 441.252838,148.067276 444.713806,149.674057 
	C448.143127,151.266144 447.997223,154.222565 447.133545,157.387360 
	C443.605286,170.315994 437.700439,182.224167 431.547424,194.031509 
	C423.694153,209.101501 414.623352,223.444366 405.682556,237.878326 
	C396.882812,252.084488 394.078400,268.255310 392.081451,284.484833 
	C390.910828,293.998566 388.464020,303.461304 389.804047,313.191467 
	C389.940186,314.179810 389.955109,315.194672 390.187683,316.158264 
	C391.263123,320.614105 393.492859,321.476135 396.704346,318.069550 
	C401.026306,313.485077 405.017822,308.543793 408.762512,303.468872 
	C420.511627,287.546265 432.676147,271.922607 443.611450,255.406845 
	C444.992584,253.320892 446.913818,250.856262 449.673187,252.542358 
	C452.320862,254.160202 451.145020,256.912506 450.033997,259.210571 
	C447.475098,264.503387 443.624878,268.905609 440.157074,273.581726 
	C429.750732,287.614075 419.477509,301.745117 409.068146,315.775177 
	C405.786224,320.198639 402.089050,324.321533 397.368896,327.260559 
	C391.467163,330.935333 387.412354,329.512177 384.559326,323.292816 
	C382.924377,319.728851 382.095520,316.050842 382.183533,312.174500 
	C382.478271,299.190979 383.589539,286.291779 386.331299,273.568024 
	C386.806122,271.364655 387.189880,269.141663 387.883148,265.537170 
	C383.050781,269.588593 379.362549,272.858673 375.486877,275.889038 
	C369.447357,280.611298 363.296936,285.232727 355.778625,287.408325 
	C351.461884,288.657532 347.441345,288.618164 345.124146,283.321716 
	C344.641113,282.608429 344.500427,282.155182 344.721069,281.318298 
	C344.908020,280.243286 344.918396,279.494629 344.906769,278.372070 
	C344.573761,275.192139 343.502716,272.343689 345.609680,269.309753 
	C345.985168,267.960052 346.101257,266.958710 346.230835,265.579376 
	C345.878815,263.670685 346.751404,260.883209 343.104034,262.541840 
	C342.816010,262.692200 342.768127,262.767761 342.799988,262.799133 
	C342.586731,263.469543 341.968964,263.475220 341.228943,263.827881 
	C341.010162,264.010864 341.000000,264.000000 341.005829,264.005280 
	C340.096466,265.162170 339.828674,266.797028 338.110535,267.729523 
z"/>
<path fill="#FDE1DE" opacity="1.000000" stroke="none" 
	d="
M370.150024,166.973419 
	C376.976135,167.949692 378.224701,170.067352 375.983276,176.060883 
	C373.300659,183.234070 367.302155,187.644150 362.131500,192.742599 
	C361.305634,193.556900 360.338135,194.225571 359.484314,195.013779 
	C353.873413,200.193619 353.186127,200.280289 350.353882,193.415161 
	C348.051605,187.834763 343.649658,183.468018 341.908234,177.658661 
	C340.416260,172.681580 340.290100,167.860031 343.991425,163.669250 
	C348.468689,158.599915 355.519196,159.893677 357.855560,166.173141 
	C359.934937,171.761841 359.940308,171.771439 365.192749,168.834152 
	C366.637634,168.026138 367.967346,166.964127 370.150024,166.973419 
z"/>
<path fill="#FEECE7" opacity="1.000000" stroke="none" 
	d="
M325.649841,341.412659 
	C324.353912,332.457336 325.633118,324.087341 327.096771,315.757416 
	C327.505310,313.432190 327.764221,310.415558 331.034088,310.147186 
	C334.354279,309.874634 337.642975,310.080566 340.037384,313.110565 
	C342.876526,316.703369 343.719635,320.990356 343.863037,325.260895 
	C344.152710,333.884460 344.013794,342.527069 343.859924,351.158417 
	C343.803314,354.333771 342.488281,357.294464 341.252258,360.199738 
	C340.122742,362.854706 338.103485,364.571198 335.207397,364.716583 
	C332.162689,364.869446 330.381775,362.905487 329.176300,360.322754 
	C326.441925,354.464325 326.033142,348.175201 325.649841,341.412659 
z"/>
<path fill="#FCE9E6" opacity="1.000000" stroke="none" 
	d="
M318.679901,192.954269 
	C318.576324,188.754364 320.354736,185.439545 322.085236,182.313278 
	C325.175751,176.730087 331.470490,176.780212 334.925171,182.188339 
	C338.336853,187.529129 337.034760,193.514648 336.651428,199.187332 
	C336.240295,205.271210 334.754974,211.278244 333.835052,217.333496 
	C333.214752,221.416916 331.535675,222.865433 327.468964,220.731674 
	C321.761627,217.737106 315.860291,215.128891 309.380371,212.965729 
	C308.682495,212.528427 308.496552,212.105057 308.539856,211.280289 
	C308.959534,210.567780 309.339874,210.285812 310.132416,210.003510 
	C311.421661,209.899628 312.368805,209.962601 313.645355,209.671432 
	C317.787048,209.812164 320.494476,212.752853 324.142029,213.504257 
	C327.654053,214.227737 329.562012,213.569229 330.022369,209.790039 
	C330.682709,204.369522 332.343964,199.059021 332.189514,193.560364 
	C332.102539,190.465317 331.985596,186.899277 328.092957,185.906891 
	C325.676270,185.290771 323.479034,188.726837 322.953094,193.288376 
	C322.685577,195.608459 322.885498,197.928741 322.780853,200.244217 
	C322.680328,202.468445 322.272949,204.770844 319.744598,205.398392 
	C317.189392,206.032578 316.476410,203.727661 315.458740,202.063843 
	C314.669403,200.773285 314.047241,199.433563 314.111145,197.511917 
	C314.669220,194.773056 317.161804,194.671783 318.679901,192.954269 
z"/>
<path fill="#FEF1EC" opacity="1.000000" stroke="none" 
	d="
M300.707825,329.407227 
	C300.848694,326.650421 300.830566,324.281281 300.747803,321.473816 
	C299.558228,318.358734 300.000000,315.596344 300.401459,312.414062 
	C300.693298,311.560028 300.819061,311.137177 301.028625,310.394257 
	C301.259369,309.968811 301.406311,309.863464 301.798340,309.874146 
	C302.418335,310.777557 302.793182,311.564941 303.269043,312.664185 
	C304.685760,317.806915 303.623932,322.742462 304.027802,327.609222 
	C304.194794,329.621613 302.959839,332.297119 305.275635,333.454102 
	C307.513031,334.571991 309.652740,333.125458 311.716614,331.276245 
	C312.015198,330.552124 312.030396,330.110382 312.024231,329.337585 
	C310.279999,326.561493 309.598145,324.013824 310.744629,321.050659 
	C312.058990,317.653503 309.447906,314.268341 310.819275,310.470276 
	C311.130280,310.113403 311.058228,310.001251 311.079803,310.064209 
	C314.391785,308.494415 315.423218,310.401245 315.256378,313.138092 
	C315.114502,315.464966 315.073547,317.790466 314.955933,320.581238 
	C314.955841,323.407990 314.976227,325.769470 315.033539,328.572571 
	C315.954742,332.337433 315.327332,335.719177 315.326141,339.512512 
	C315.199005,343.974976 315.205536,347.996399 315.278503,352.472046 
	C316.651367,354.541779 316.745361,356.345093 316.059387,358.639771 
	C315.940796,359.463318 315.932556,359.899139 315.948456,360.661194 
	C316.116577,361.155884 316.260559,361.324402 316.192596,361.749054 
	C315.980682,362.005219 315.923187,362.424133 315.918274,362.635468 
	C312.061584,363.446869 311.995148,363.356842 312.417786,357.422455 
	C312.504242,355.860840 312.415375,354.750427 312.201660,353.324219 
	C310.382904,350.587280 310.400116,347.803467 310.525787,345.051514 
	C310.660217,342.108978 309.981720,339.583527 307.259033,337.464233 
	C306.517456,337.173401 306.081726,337.131622 305.317444,337.098206 
	C304.618652,337.342316 304.219269,337.503326 303.565552,337.817841 
	C303.333313,341.394958 303.321259,344.731415 303.379578,348.517578 
	C304.450134,352.603577 305.533203,356.180084 304.582520,360.078918 
	C304.163116,361.798920 303.776733,362.881165 301.405365,362.215393 
	C301.015778,361.962250 300.960175,361.468750 300.915161,361.224548 
	C300.615051,360.583649 300.504089,360.150024 300.660400,359.357056 
	C300.797394,356.633087 300.811218,354.231537 300.793030,351.380676 
	C300.200592,346.616760 300.614532,342.285187 300.650818,337.512939 
	C300.786713,336.284515 300.805817,335.505463 300.802368,334.337097 
	C300.309113,332.585449 300.544128,331.183807 300.707825,329.407227 
z"/>
<path fill="#FCECE9" opacity="1.000000" stroke="none" 
	d="
M354.945740,350.972626 
	C354.989258,339.158295 354.988068,327.838684 355.108002,316.520355 
	C355.130524,314.397003 354.100708,311.434448 357.658936,311.004150 
	C361.077087,310.590759 364.481537,310.751617 366.123932,314.586365 
	C367.899231,318.731415 366.760620,323.144775 367.127625,327.422058 
	C367.570648,332.585266 364.793640,335.416351 360.430481,337.329315 
	C358.270081,338.276520 357.992493,340.321472 358.088623,342.415649 
	C358.362915,348.391693 358.680267,354.365936 358.911743,360.343597 
	C358.968231,361.802856 359.180756,363.948700 357.421844,364.130402 
	C355.151367,364.364929 355.230896,361.993164 355.123718,360.451660 
	C354.916229,357.467285 354.987305,354.463501 354.945740,350.972626 
z"/>
<path fill="#FEF0EC" opacity="1.000000" stroke="none" 
	d="
M280.221832,304.899597 
	C277.072388,312.769897 279.716095,319.751862 282.779846,326.645386 
	C286.054657,334.013763 290.293182,340.956665 290.192963,349.532593 
	C290.123749,355.454102 288.221130,360.116425 283.337860,363.848999 
	C282.644226,363.522034 282.486969,363.057129 282.719238,362.189636 
	C286.978058,356.830566 287.678131,351.044495 286.516113,344.940125 
	C285.356171,338.846802 282.584351,333.368439 279.725098,327.922058 
	C276.395325,321.579529 274.884003,314.901642 276.793640,307.375336 
	C277.240326,306.784485 277.481201,306.533234 277.747314,305.984924 
	C277.819427,305.731964 277.856110,305.347260 277.924042,305.166382 
	C278.550262,304.593140 279.163055,304.468048 280.221832,304.899597 
z"/>
<path fill="#F3B3B6" opacity="1.000000" stroke="none" 
	d="
M257.562744,272.943451 
	C254.250961,280.535736 251.253159,288.470184 245.686539,295.243530 
	C246.333191,285.411285 249.356323,276.232483 253.624023,267.045746 
	C254.269272,269.211914 253.589691,272.230164 257.562744,272.943451 
z"/>
<path fill="#FDE1E0" opacity="1.000000" stroke="none" 
	d="
M304.995483,209.104370 
	C299.132446,207.780136 298.099121,202.808685 297.181213,198.333069 
	C296.321167,194.139511 297.479401,189.808334 301.829254,187.838333 
	C305.798096,186.040863 309.895630,186.201965 313.156433,190.345642 
	C313.198547,190.893906 313.109833,191.108749 312.723450,191.504105 
	C311.573700,191.918091 310.801575,191.779541 310.064331,191.271606 
	C309.687500,191.011963 309.382812,190.597549 308.860687,190.583450 
	C309.245880,190.918228 309.511047,191.327011 309.616760,192.177261 
	C309.515686,192.743683 309.425598,192.960205 309.082458,193.423065 
	C308.254242,194.003510 307.620483,194.134186 306.976593,194.279099 
	C305.488892,194.613937 303.309845,193.350006 302.628235,195.447647 
	C301.942688,197.557434 303.641998,199.058456 304.962524,200.536453 
	C307.068237,202.893311 310.684692,204.117752 310.545380,208.409729 
	C308.517670,210.929306 307.091217,208.948273 305.465973,208.382843 
	C305.406097,208.589478 305.207947,209.010071 304.995483,209.104370 
z"/>
<path fill="#F5B2B5" opacity="1.000000" stroke="none" 
	d="
M311.614075,330.996887 
	C312.589233,335.095734 309.871796,334.992920 307.052338,335.027649 
	C303.988251,335.065369 303.008209,333.455078 303.046936,330.700531 
	C303.125702,325.101990 303.154877,319.502808 303.287262,313.439941 
	C305.568787,314.021057 304.919403,316.056671 304.976898,317.791840 
	C305.059296,320.278656 304.994690,322.770355 304.992981,325.259949 
	C304.988159,332.199677 304.988159,332.199677 311.614075,330.996887 
z"/>
<path fill="#F3B3B6" opacity="1.000000" stroke="none" 
	d="
M288.932312,258.918762 
	C281.030853,248.472641 280.691803,248.425537 270.251099,256.755798 
	C270.765411,251.124466 273.762024,248.689697 279.594147,249.036285 
	C286.144592,249.425568 288.912933,252.211929 288.932312,258.918762 
z"/>
<path fill="#F5B2B5" opacity="1.000000" stroke="none" 
	d="
M310.750244,310.104980 
	C311.444946,316.101135 311.759674,322.088837 312.038574,328.541565 
	C308.078888,327.351807 306.030365,325.268707 309.213470,320.923157 
	C310.700043,318.893738 310.426880,316.258301 308.977356,313.963959 
	C307.812164,312.119690 307.563873,310.541138 310.750244,310.104980 
z"/>
<path fill="#F5B2B5" opacity="1.000000" stroke="none" 
	d="
M306.971008,337.598755 
	C310.691071,336.506073 312.426636,337.833710 312.150421,341.843292 
	C311.916626,345.237488 312.116302,348.661499 312.100464,352.540405 
	C310.319214,352.122131 309.172791,350.458221 309.264557,348.744537 
	C309.471039,344.889130 307.734406,341.563843 306.971008,337.598755 
z"/>
<path fill="#F5B2B5" opacity="1.000000" stroke="none" 
	d="
M315.183807,320.747986 
	C313.476898,318.770172 314.354248,316.222748 314.100494,313.806885 
	C313.934540,312.226685 314.355682,310.316498 311.495911,310.126404 
	C311.736572,306.942078 313.738800,308.478729 315.281921,309.022919 
	C317.033966,309.640747 318.334503,311.158234 317.231140,312.833710 
	C315.636841,315.254669 316.557556,318.054474 315.183807,320.747986 
z"/>
<path fill="#FDE1E0" opacity="1.000000" stroke="none" 
	d="
M318.478027,192.704590 
	C319.103485,195.150909 317.169220,195.901428 315.085663,196.942841 
	C311.391785,198.650467 309.791656,196.820190 308.802368,193.560852 
	C308.875946,193.165741 309.037292,192.968719 309.118469,192.870605 
	C309.605011,192.405655 310.025330,192.063522 310.835327,191.925430 
	C311.263184,191.909409 311.432129,191.904739 311.841370,191.832977 
	C312.081665,191.765884 312.494965,191.493393 312.671844,191.320267 
	C312.848724,191.147141 313.068268,190.918152 313.177734,190.798615 
	C315.047791,191.070206 316.007782,193.287766 318.478027,192.704590 
z"/>
<path fill="#F5B2B5" opacity="1.000000" stroke="none" 
	d="
M301.023926,362.307312 
	C303.610382,362.196075 304.002106,360.525574 303.889526,358.537598 
	C303.724335,355.621002 303.473694,352.709229 303.354675,349.381348 
	C307.404633,353.302673 305.932892,358.200684 304.527100,362.858154 
	C304.048279,364.444519 302.010376,366.139893 301.023926,362.307312 
z"/>
<path fill="#FDDDDD" opacity="1.000000" stroke="none" 
	d="
M280.916809,305.130310 
	C280.029602,305.133301 279.445984,305.077881 278.427185,305.003967 
	C278.343140,302.606995 280.150360,301.745178 282.130981,301.315277 
	C284.000397,300.909515 286.407806,301.234497 286.573547,303.246033 
	C286.772247,305.657043 284.207947,303.675629 283.082855,304.433502 
	C282.557190,304.787598 281.846985,304.867676 280.916809,305.130310 
z"/>
<path fill="#F5B2B5" opacity="1.000000" stroke="none" 
	d="
M312.295227,357.136292 
	C313.701874,358.836914 311.358185,362.184418 315.526245,362.874939 
	C315.974915,364.537476 315.862732,366.164032 313.956879,367.521027 
	C312.214996,364.236694 309.529572,361.362427 312.295227,357.136292 
z"/>
<path fill="#FEE0DA" opacity="1.000000" stroke="none" 
	d="
M282.572754,361.942993 
	C282.935608,362.314636 282.966217,362.773285 283.000916,363.575012 
	C282.883972,364.030731 282.779938,364.174713 282.639221,364.251312 
	C280.432007,365.452362 277.864075,365.760925 276.202301,364.002655 
	C274.434967,362.132690 276.642578,362.090363 277.872620,362.057831 
	C279.007477,362.027771 280.146912,362.235992 281.286713,362.285583 
	C281.600311,362.299225 281.922333,362.120483 282.572754,361.942993 
z"/>
<path fill="#ECBCBC" opacity="1.000000" stroke="none" 
	d="
M343.160706,262.818695 
	C343.609497,260.687744 345.198639,257.946075 346.906464,258.756622 
	C349.545410,260.009064 346.801178,262.584656 346.457825,264.909729 
	C345.588501,264.137146 344.756256,263.287079 343.160706,262.818695 
z"/>
<path fill="#F5B2B5" opacity="1.000000" stroke="none" 
	d="
M316.297485,358.911560 
	C314.751892,357.392944 315.185394,355.530945 315.277283,353.326172 
	C319.084717,354.149902 318.708496,356.285889 316.297485,358.911560 
z"/>
<path fill="#F5B2B5" opacity="1.000000" stroke="none" 
	d="
M300.264648,312.159058 
	C300.648743,314.700073 300.729980,317.417267 300.747192,320.584961 
	C297.889771,318.347076 298.618988,315.366608 300.264648,312.159058 
z"/>
<path fill="#ECBCBC" opacity="1.000000" stroke="none" 
	d="
M345.532898,269.033844 
	C345.575684,271.694977 345.282288,274.428558 344.936829,277.580139 
	C344.382294,276.495483 344.209778,274.747314 343.311127,273.539398 
	C341.208984,270.713715 343.017181,269.914703 345.532898,269.033844 
z"/>
<path fill="#F5B2B5" opacity="1.000000" stroke="none" 
	d="
M300.568420,337.407654 
	C300.806030,341.383911 300.844482,345.704254 300.821960,350.477936 
	C299.395142,346.574799 299.931641,342.161774 300.568420,337.407654 
z"/>
<path fill="#F5B2B5" opacity="1.000000" stroke="none" 
	d="
M302.261169,309.732117 
	C302.043457,309.990204 301.579010,310.049774 301.345703,310.061981 
	C299.673401,308.370087 300.831024,307.074249 301.809967,305.552307 
	C303.488983,306.719543 302.999146,308.093994 302.261169,309.732117 
z"/>
<path fill="#F5B2B5" opacity="1.000000" stroke="none" 
	d="
M315.397339,339.619293 
	C315.129974,336.610504 315.067444,333.267487 315.037720,329.469360 
	C316.690643,332.363129 316.035156,335.829865 315.397339,339.619293 
z"/>
<path fill="#FDE1E0" opacity="1.000000" stroke="none" 
	d="
M308.902222,210.688004 
	C309.008240,211.461655 309.009430,211.868652 309.013885,212.579407 
	C307.424744,212.175858 305.720917,211.616333 304.867065,209.508270 
	C304.782990,209.198685 304.907196,209.084000 304.967163,209.024445 
	C306.913177,207.667938 307.703491,209.416550 308.902222,210.688004 
z"/>
<path fill="#ECBCBC" opacity="1.000000" stroke="none" 
	d="
M338.229858,267.916809 
	C338.191650,266.339844 339.231964,265.266357 340.724121,264.160767 
	C340.931305,265.755432 341.222809,267.728607 338.229858,267.916809 
z"/>
<path fill="#F3B3B6" opacity="1.000000" stroke="none" 
	d="
M260.611572,268.006073 
	C260.867462,269.100647 260.389832,269.998322 259.227234,270.831177 
	C257.544373,269.165253 258.334381,268.334564 260.611572,268.006073 
z"/>
<path fill="#F5B2B5" opacity="1.000000" stroke="none" 
	d="
M300.669708,329.286926 
	C300.882904,330.391937 300.899017,331.764313 300.847473,333.542297 
	C299.793121,332.545166 299.813171,331.072083 300.669708,329.286926 
z"/>
<path fill="#F3B3B6" opacity="1.000000" stroke="none" 
	d="
M262.587891,265.058228 
	C262.497040,265.641541 262.100555,266.323029 261.427002,267.146362 
	C261.127808,266.365387 261.351532,265.573120 262.587891,265.058228 
z"/>
<path fill="#F3B3B6" opacity="1.000000" stroke="none" 
	d="
M264.827271,262.174622 
	C264.831268,262.510376 264.618835,263.006897 264.162994,263.630066 
	C264.149994,263.282928 264.380432,262.809204 264.827271,262.174622 
z"/>
<path fill="#F5B2B5" opacity="1.000000" stroke="none" 
	d="
M300.638977,359.210175 
	C300.832642,359.466370 300.881714,359.898163 300.900452,360.655151 
	C300.367096,360.537842 300.114105,360.036407 300.638977,359.210175 
z"/>
<path fill="#ECBCBC" opacity="1.000000" stroke="none" 
	d="
M341.295105,263.964661 
	C341.431091,263.648468 341.851990,263.286072 342.552399,262.877106 
	C342.414581,263.193176 341.997314,263.555847 341.295105,263.964661 
z"/>
<path fill="#F5B2B5" opacity="1.000000" stroke="none" 
	d="
M303.579529,337.997498 
	C303.714630,337.735718 304.083893,337.412964 304.721008,337.098389 
	C304.597107,337.383240 304.205383,337.659882 303.579529,337.997498 
z"/>
<path fill="#F3B3B6" opacity="1.000000" stroke="none" 
	d="
M266.112152,260.255402 
	C266.108795,260.647125 265.812805,261.167236 265.272858,261.861877 
	C265.292480,261.485565 265.556000,260.934692 266.112152,260.255402 
z"/>
<path fill="#ECBCBC" opacity="1.000000" stroke="none" 
	d="
M344.735046,281.169189 
	C344.936859,281.438721 344.976105,281.885437 344.990967,282.668243 
	C344.412994,282.552032 344.138184,282.033478 344.735046,281.169189 
z"/>
<path fill="#F5B2B5" opacity="1.000000" stroke="none" 
	d="
M316.110016,361.901367 
	C315.965698,361.835724 315.950684,361.666260 315.954163,361.242096 
	C316.318909,361.190247 316.407806,361.460297 316.110016,361.901367 
z"/>
<path fill="#FDDDDD" opacity="1.000000" stroke="none" 
	d="
M277.632446,305.911499 
	C277.670654,306.045441 277.521881,306.358917 277.166199,306.835144 
	C277.121368,306.695648 277.283417,306.393341 277.632446,305.911499 
z"/>
<path fill="#F7ADAE" opacity="1.000000" stroke="none" 
	d="
M317.966095,264.072266 
	C320.520966,258.907379 324.206848,255.040009 327.708832,251.060837 
	C329.702637,248.795364 332.236542,247.166794 335.252350,246.451309 
	C337.447052,245.930634 339.278046,246.653595 340.465240,248.455200 
	C341.599762,250.176849 341.175507,251.965195 339.836700,253.493408 
	C332.729950,261.605621 326.069458,270.126923 318.021881,277.377594 
	C316.813019,278.466736 315.366241,280.235138 313.805573,279.216888 
	C312.168182,278.148529 313.404846,276.147278 313.932831,274.648132 
	C315.144928,271.206818 316.499237,267.815552 317.966095,264.072266 
z"/>
<path fill="#F1B5B8" opacity="1.000000" stroke="none" 
	d="
M415.329010,206.298065 
	C419.849213,193.349045 425.993011,181.614838 432.861908,170.234985 
	C433.374634,169.385529 433.917511,168.547195 434.522430,167.762344 
	C435.214661,166.864243 435.953094,165.609100 437.295166,166.477859 
	C438.342010,167.155533 437.778961,168.277344 437.329742,169.160599 
	C430.130554,183.315033 422.917633,197.462463 415.445557,212.126251 
	C413.447479,209.823212 414.992889,208.231720 415.329010,206.298065 
z"/>
<path fill="#F7AAAC" opacity="1.000000" stroke="none" 
	d="
M346.226624,173.292389 
	C345.350433,170.373657 344.187592,167.732605 346.507263,164.934113 
	C348.414856,164.368774 349.906281,164.792297 351.656860,165.785095 
	C352.235382,166.175125 352.439117,166.388977 352.687805,166.851837 
	C352.723206,167.229736 352.664612,167.405365 352.785217,167.793137 
	C354.981903,171.080246 355.362122,174.465775 354.870514,178.019241 
	C354.745697,178.921463 353.891418,180.042755 355.207336,180.613037 
	C356.608643,181.220291 357.316986,180.073776 357.909882,179.070297 
	C359.697968,176.043884 361.850677,173.379944 364.824371,171.407455 
	C366.934296,170.007919 369.061432,169.396500 371.249207,171.017960 
	C373.541870,172.717178 373.352936,175.101471 372.323456,177.305069 
	C369.042236,184.328278 362.801758,188.621658 357.007477,193.247284 
	C355.385651,194.541992 353.917023,193.020584 352.938995,191.586899 
	C350.695068,188.297546 348.507263,184.971008 347.947937,180.507050 
	C347.589783,179.632996 347.508942,179.058807 347.241516,178.256012 
	C347.070740,178.022598 347.008606,177.537842 346.993500,177.293945 
	C346.132507,175.998611 346.682587,174.729126 346.226624,173.292389 
z"/>
<path fill="#ECBCBC" opacity="1.000000" stroke="none" 
	d="
M342.992004,172.551483 
	C343.019318,171.886703 342.987946,171.545563 343.076904,171.239395 
	C343.173553,170.906799 343.641205,170.097412 343.735168,170.833679 
	C344.029144,173.137070 345.504578,175.360672 344.628937,178.034973 
	C342.679626,176.520859 343.108215,174.625931 342.992004,172.551483 
z"/>
<path fill="#EFB3B4" opacity="1.000000" stroke="none" 
	d="
M351.836853,165.706879 
	C350.416687,165.902390 348.769897,166.299561 347.067200,164.975403 
	C348.929657,161.426285 350.240509,163.893768 351.836853,165.706879 
z"/>
<path fill="#DEB9B7" opacity="1.000000" stroke="none" 
	d="
M354.089478,165.325104 
	C357.058228,166.281464 356.603699,169.012802 356.474823,171.637344 
	C355.673248,169.675659 354.871643,167.713989 354.089478,165.325104 
z"/>
<path fill="#EFB3B4" opacity="1.000000" stroke="none" 
	d="
M346.016418,173.360321 
	C346.996521,173.913986 347.017761,175.111359 346.989258,176.685150 
	C346.065643,176.110977 346.071594,174.906570 346.016418,173.360321 
z"/>
<path fill="#DEB9B7" opacity="1.000000" stroke="none" 
	d="
M353.981750,165.008026 
	C353.803864,164.679565 353.669403,164.315628 353.534912,163.951675 
	C353.707336,164.135941 353.879761,164.320221 354.080566,164.701202 
	C354.108917,164.897888 354.025177,164.972534 353.981750,165.008026 
z"/>
<path fill="#EFB3B4" opacity="1.000000" stroke="none" 
	d="
M347.086731,178.316010 
	C347.343567,178.527359 347.616394,179.032120 347.901733,179.834824 
	C347.643738,179.625000 347.373230,179.117218 347.086731,178.316010 
z"/>
<path fill="#EFB3B4" opacity="1.000000" stroke="none" 
	d="
M352.939148,167.763580 
	C352.671875,167.840347 352.557495,167.601669 352.701569,167.171692 
	C352.781830,167.054123 352.913818,167.521896 352.939148,167.763580 
z"/>
<path fill="#FAAAAC" opacity="1.000000" stroke="none" 
	d="
M340.952148,331.050110 
	C340.644501,339.969330 342.372345,348.523743 339.305664,356.781769 
	C338.479370,359.006775 337.819885,361.477325 335.015900,361.704102 
	C332.053040,361.943756 331.954346,359.090668 331.079407,357.271637 
	C327.457581,349.741882 329.015228,341.541382 328.579346,333.675446 
	C328.319183,328.980957 328.821991,324.064148 329.120605,319.255188 
	C329.287689,316.564423 329.404236,313.691345 332.838074,313.034637 
	C336.574402,312.320068 338.384613,314.974609 339.579285,317.740509 
	C341.333374,321.801697 340.900177,326.236969 340.952148,331.050110 
z"/>
<path fill="#F8AAAB" opacity="1.000000" stroke="none" 
	d="
M308.481293,193.110291 
	C310.213165,194.999603 312.054688,196.132767 314.441101,197.016296 
	C315.760681,198.599747 316.766113,200.112167 317.771667,201.624481 
	C318.385773,202.548080 317.741699,204.804367 319.861145,204.091461 
	C321.330505,203.597198 321.233398,201.859268 321.006165,200.577576 
	C320.385590,197.077011 320.632080,193.574356 321.291443,190.180115 
	C321.991364,186.577148 323.965698,183.214188 328.041656,183.304016 
	C331.953583,183.390198 333.454315,186.817871 333.946228,190.267715 
	C335.146454,198.684433 332.207764,206.656982 331.025665,214.818298 
	C330.751160,216.713516 329.438690,216.383636 328.005432,216.275925 
	C322.716705,215.878479 318.238861,213.445511 313.108337,210.858658 
	C311.885803,210.507782 311.347961,210.187317 310.400909,209.442871 
	C309.901825,206.669250 308.006531,205.712296 306.562897,204.437729 
	C305.581390,203.571152 304.430725,202.890228 303.484406,201.990845 
	C300.998566,199.628281 298.605286,196.650146 300.470093,193.369263 
	C302.212585,190.303635 305.480621,192.717728 308.481293,193.110291 
z"/>
<path fill="#E2C2BF" opacity="1.000000" stroke="none" 
	d="
M309.340759,211.048981 
	C307.891632,210.398697 306.776245,209.742752 305.343994,209.025848 
	C304.455536,207.458939 302.573608,206.793808 302.403015,204.741730 
	C305.549744,204.907867 306.686005,208.229111 309.677155,208.933197 
	C310.020020,208.965042 310.002563,208.991196 310.012787,208.984985 
	C310.343781,209.251968 310.662750,209.527222 310.993896,210.395386 
	C310.563629,211.005005 310.119080,211.024155 309.340759,211.048981 
z"/>
<path fill="#E4D7D0" opacity="1.000000" stroke="none" 
	d="
M328.574860,218.126068 
	C329.111664,218.265167 329.441345,218.455093 329.771057,218.645050 
	C329.336060,218.714630 328.902649,218.806534 328.464935,218.837250 
	C328.362091,218.844467 328.179962,218.658600 328.154144,218.536270 
	C328.132965,218.435989 328.289856,218.298111 328.574860,218.126068 
z"/>
<path fill="#E2C2BF" opacity="1.000000" stroke="none" 
	d="
M328.096497,180.316742 
	C328.626404,180.135071 329.095734,179.985443 329.066254,180.673660 
	C328.700500,180.602859 328.334717,180.532059 328.096497,180.316742 
z"/>
<path fill="#E2C2BF" opacity="1.000000" stroke="none" 
	d="
M313.025146,210.986618 
	C312.559570,211.499146 312.047150,211.873184 311.172150,211.171585 
	C311.008179,210.985855 310.998779,211.001373 310.994019,211.007996 
	C311.368652,210.613358 311.830536,210.459045 312.697021,210.763519 
	C313.019104,210.975388 313.011292,210.995972 313.025146,210.986618 
z"/>
<path fill="#E2C2BF" opacity="1.000000" stroke="none" 
	d="
M331.435608,181.437958 
	C331.510864,181.391083 331.539459,181.581497 331.539459,181.581497 
	C331.539459,181.581497 331.360352,181.484833 331.435608,181.437958 
z"/>
<path fill="#F0AEB1" opacity="1.000000" stroke="none" 
	d="
M364.036255,318.519196 
	C363.931244,323.231995 364.649353,327.589783 362.869598,331.703400 
	C362.193542,333.266083 361.257904,334.998199 359.344025,334.553894 
	C357.453278,334.114899 358.099579,332.112885 358.069946,330.715698 
	C357.985687,326.745605 357.935059,322.771973 358.014160,318.802582 
	C358.047699,317.120514 357.258667,314.707672 359.772736,314.271515 
	C362.381927,313.818817 363.601135,315.680176 364.036255,318.519196 
z"/>
<path fill="#DEB9B7" opacity="1.000000" stroke="none" 
	d="
M312.496338,191.048309 
	C312.920197,191.534103 312.991699,191.921082 312.972931,192.724091 
	C311.896423,193.042740 310.910187,192.945328 309.561768,192.810196 
	C308.441956,190.369461 305.800446,190.640533 304.104004,189.341660 
	C307.264954,188.133652 309.620728,189.943039 312.496338,191.048309 
z"/>
<path fill="#DEB9B7" opacity="1.000000" stroke="none" 
	d="
M313.059753,192.956375 
	C313.193146,193.066193 313.265106,193.234909 313.337097,193.403610 
	C313.241852,193.382828 313.146576,193.362030 312.967010,193.240692 
	C312.882690,193.140137 312.998352,193.015274 313.059753,192.956375 
z"/>
<path fill="#FDE1E0" opacity="1.000000" stroke="none" 
	d="
M312.965729,210.637238 
	C312.568268,210.994095 312.117432,211.012802 311.327942,211.023071 
	C310.728699,210.513992 310.468170,210.013351 310.115326,209.245743 
	C311.262634,208.813782 312.307129,209.075760 312.965729,210.637238 
z"/>
</svg>